<svg version="1.1" id="Layer_1" xmlns="http://www.w3.org/2000/svg" xmlns:xlink="http://www.w3.org/1999/xlink" width="146" height="30" viewBox="0 0 146 30" fill="none" xml:space="preserve">
<path d="M19.2954 9.38485L17.026 11.6543C16.8386 11.8417 16.7553 12.0707 16.7553 12.3205C16.7553 12.5704 16.8594 12.7994 17.026 12.9868C17.1925 13.1742 17.4424 13.2575 17.6922 13.2575C17.9421 13.2575 18.1711 13.1534 18.3585 12.9868L20.6696 10.6757C20.8361 10.4883 20.9402 10.2593 20.9402 10.0095C20.9402 9.67633 20.7737 9.36402 20.4614 9.19746C20.1282 8.98926 19.5869 9.09336 19.2954 9.38485Z" fill="white"/>
<path d="M23.3762 7.57346C23.626 7.57346 23.8551 7.46935 24.0424 7.30279L29.7056 1.63962C29.8722 1.45223 29.9763 1.22321 29.9763 0.973363C29.9763 0.723518 29.8722 0.494492 29.7056 0.307108C29.3309 -0.0676607 28.7479 -0.0676607 28.3731 0.307108L22.7099 5.97028C22.5226 6.15766 22.4393 6.38669 22.4393 6.63653C22.4393 6.88638 22.5434 7.11541 22.7099 7.30279C22.8973 7.46935 23.1263 7.57346 23.3762 7.57346Z" fill="white"/>
<path d="M24.0841 22.7516C23.7926 22.4601 23.2721 22.356 22.9181 22.5642C22.6058 22.7516 22.4393 23.0431 22.4393 23.3762C22.4393 23.626 22.5434 23.8551 22.7099 24.0424L28.3731 29.7056C28.5605 29.893 28.7895 29.9763 29.0394 29.9763C29.2892 29.9763 29.5182 29.8722 29.7056 29.7056C29.893 29.5391 29.9763 29.2892 29.9763 29.0394C29.9763 28.7895 29.8722 28.5605 29.7056 28.3731L24.0841 22.7516Z" fill="white"/>
<path d="M5.92864 22.7516L0.286291 28.394C0.119727 28.5814 0.015625 28.8104 0.015625 29.0602C0.015625 29.3101 0.119727 29.5391 0.286291 29.7265C0.452855 29.9139 0.702701 29.9971 0.952547 29.9971C1.20239 29.9971 1.43142 29.893 1.6188 29.7265L7.28197 24.0633C7.44854 23.8967 7.55264 23.6469 7.55264 23.3971C7.55264 23.0639 7.38608 22.7516 7.07377 22.5851C6.74064 22.356 6.22013 22.481 5.92864 22.7516Z" fill="white"/>
<path d="M5.97041 7.28225C6.13697 7.46963 6.38681 7.55291 6.63666 7.55291C6.88651 7.55291 7.11553 7.44881 7.30292 7.28225C7.4903 7.11568 7.57358 6.86584 7.57358 6.61599C7.57358 6.36614 7.46948 6.13712 7.30292 5.94973L1.63974 0.328205C1.36908 0.0367179 0.827746 -0.0673845 0.494618 0.14082C0.182311 0.307384 0.0157471 0.619691 0.0157471 0.952819C0.0157471 1.20266 0.119849 1.43169 0.286413 1.61907L5.97041 7.28225Z" fill="white"/>
<path d="M17.3383 7.49017C17.5465 7.57346 17.7547 7.57345 17.9837 7.51099C18.2544 7.42771 18.4626 7.19869 18.5875 6.92802L20.8569 1.34813C21.0027 0.973362 20.8986 0.45285 20.5862 0.203005C20.2948 -0.0052003 19.9616 -0.0468413 19.6493 0.0780816C19.4203 0.182184 19.2329 0.348748 19.1496 0.598594L16.8177 6.28259C16.7136 6.51161 16.7345 6.76146 16.8177 6.99048C16.9218 7.21951 17.1092 7.40689 17.3383 7.49017Z" fill="white"/>
<path d="M10.8839 0.598589C10.7798 0.369564 10.6133 0.182179 10.3842 0.0780768C10.1552 -0.0260256 9.90537 -0.0260256 9.67635 0.0780768C9.44732 0.182179 9.25994 0.348743 9.15584 0.577768C9.05173 0.806794 9.05173 1.05664 9.15584 1.28566L11.4461 6.9072C11.5502 7.17786 11.7584 7.40689 12.0499 7.49017C12.2789 7.55263 12.4871 7.55263 12.6953 7.46935C12.9243 7.36525 13.1117 7.19868 13.2158 6.96966C13.3199 6.74063 13.3199 6.49079 13.2158 6.26176L10.8839 0.598589Z" fill="white"/>
<path d="M6.96966 11.4461L1.34813 9.15581C0.973362 9.01007 0.45285 9.11417 0.203005 9.42647C-0.0052003 9.71796 -0.0468413 10.0511 0.0780816 10.3634C0.182184 10.5924 0.348748 10.7798 0.598594 10.8631L6.26177 13.1742C6.36587 13.2158 6.49079 13.2366 6.61571 13.2366C6.99048 13.2366 7.34443 13.0076 7.49017 12.6536C7.59428 12.4246 7.57346 12.1748 7.49017 11.9458C7.38607 11.7167 7.21951 11.5502 6.96966 11.4461Z" fill="white"/>
<path d="M6.28258 16.8177L0.598589 19.1288C0.369564 19.2329 0.182179 19.3995 0.0780768 19.6285C-0.0260256 19.8575 -0.0260256 20.1074 0.0780768 20.3364C0.22382 20.6903 0.556948 20.9194 0.952537 20.9194C1.07746 20.9194 1.18156 20.8985 1.30649 20.8569L6.96966 18.5458C7.19868 18.4417 7.38607 18.2752 7.49017 18.0461C7.59427 17.8171 7.59427 17.5673 7.49017 17.3382C7.30278 16.8594 6.76145 16.6303 6.28258 16.8177Z" fill="white"/>
<path d="M12.6745 22.5226C12.4455 22.4185 12.1957 22.4393 11.9666 22.5226C11.7376 22.6267 11.5502 22.7932 11.4669 23.0431L9.15587 28.7063C9.05177 28.9353 9.07259 29.1851 9.15587 29.4142C9.25998 29.6432 9.42654 29.8306 9.67638 29.9138C9.88459 29.9971 10.0928 29.9971 10.3218 29.9347C10.5925 29.8514 10.8007 29.6224 10.9256 29.3517L13.2159 23.7302C13.32 23.5011 13.2991 23.2513 13.2159 23.0223C13.0909 22.7932 12.9036 22.6059 12.6745 22.5226Z" fill="white"/>
<path d="M18.5666 23.0223C18.4625 22.7932 18.296 22.6059 18.0669 22.5018C17.7546 22.3768 17.4215 22.4185 17.13 22.6267C16.8177 22.8557 16.6928 23.397 16.8594 23.7718L19.108 29.3725C19.2121 29.6432 19.4203 29.8722 19.7118 29.9555C19.9408 30.018 20.149 30.018 20.3572 29.9347C20.5862 29.8306 20.7736 29.664 20.8777 29.435C20.9818 29.206 20.9818 28.9561 20.8777 28.7271L18.5666 23.0223Z" fill="white"/>
<path d="M29.4142 19.1288L23.751 16.8177C23.2721 16.6303 22.7308 16.8594 22.5226 17.3382C22.4185 17.5673 22.4393 17.8171 22.5226 18.0461C22.6267 18.2752 22.7932 18.4625 23.0431 18.5458L28.7063 20.8569C28.8104 20.8985 28.9353 20.9194 29.0602 20.9194C29.435 20.9194 29.7889 20.6903 29.9347 20.3364C30.0388 20.1074 30.0179 19.8575 29.9347 19.6285C29.8306 19.3995 29.6432 19.2329 29.4142 19.1288Z" fill="white"/>
<path d="M23.3762 13.2574C23.5012 13.2574 23.6053 13.2366 23.7302 13.195L29.3934 10.8839C29.6224 10.7798 29.8098 10.6132 29.9139 10.3842C30.0388 10.0719 29.9972 9.71795 29.789 9.44729C29.5599 9.13498 29.0186 9.01006 28.6438 9.17662L23.0223 11.4669C22.7933 11.571 22.6059 11.7375 22.5018 11.9666C22.3977 12.1956 22.3977 12.4454 22.5018 12.6745C22.6683 13.0284 23.0015 13.2574 23.3762 13.2574Z" fill="white"/>
<path d="M11.6543 12.9868C11.8417 13.1742 12.0707 13.2575 12.3206 13.2575C12.5704 13.2575 12.7994 13.1534 12.9868 12.9868C13.1742 12.7994 13.2575 12.5704 13.2575 12.3205C13.2575 12.0707 13.1534 11.8417 12.9868 11.6543L10.6966 9.38485C10.4051 9.09336 9.88458 8.98926 9.53063 9.19746C9.21832 9.38485 9.05176 9.67633 9.05176 10.0095C9.05176 10.2593 9.15586 10.4883 9.32242 10.6757L11.6543 12.9868Z" fill="white"/>
<path d="M19.3371 20.6695C19.5244 20.8569 19.7535 20.9402 20.0033 20.9402C20.2532 20.9402 20.4822 20.8361 20.6696 20.6695C20.8569 20.503 20.9402 20.2531 20.9402 20.0033C20.9402 19.7534 20.8361 19.5244 20.6696 19.337L18.3793 17.0676C18.067 16.7553 17.6089 16.672 17.2342 16.8802C16.9219 17.0676 16.7553 17.3591 16.7553 17.6922C16.7553 17.9421 16.8594 18.1711 17.026 18.3585L19.3371 20.6695Z" fill="white"/>
<path d="M9.34324 20.6695C9.53062 20.8569 9.75965 20.9402 10.0095 20.9402C10.2593 20.9402 10.4884 20.8361 10.6757 20.6695L12.9868 18.3585C13.1742 18.1919 13.2575 17.9421 13.2575 17.6922C13.2575 17.3591 13.0909 17.0468 12.7786 16.8802C12.4038 16.672 11.925 16.7553 11.6335 17.0676L9.34324 19.337C9.15585 19.5244 9.07257 19.7534 9.07257 20.0033C9.07257 20.2531 9.17667 20.4822 9.34324 20.6695Z" fill="white"/>
<path d="M108.574 8.84351H104.868C104.597 8.84351 104.41 8.96843 104.41 9.30156V9.86371H103.056V8.61448C103.056 8.07315 103.369 7.511 104.16 7.511H114.466C115.132 7.49018 115.611 7.92741 115.611 8.57284V9.86371H114.237V9.30156C114.237 8.96843 114.029 8.84351 113.779 8.84351H110.094V22.4809H108.594V8.84351H108.574Z" fill="white"/>
<path d="M108.574 8.84351H104.868C104.597 8.84351 104.41 8.96843 104.41 9.30156V9.86371H103.056V8.61448C103.056 8.07315 103.369 7.511 104.16 7.511H114.466C115.132 7.49018 115.611 7.92741 115.611 8.57284V9.86371H114.237V9.30156C114.237 8.96843 114.029 8.84351 113.779 8.84351H110.094V22.4809H108.594V8.84351H108.574Z" fill="white"/>
<path d="M118.443 11.5085C121.399 11.5085 122.94 13.7779 122.94 16.443C122.94 16.6928 122.898 17.1717 122.898 17.1717H114.674C114.716 19.8783 116.61 21.4191 118.817 21.4191C120.774 21.4191 122.024 20.1074 122.024 20.1074L122.732 21.19C122.732 21.19 121.17 22.7308 118.755 22.7308C115.59 22.7308 113.154 20.4405 113.154 17.13C113.154 13.6322 115.569 11.5085 118.443 11.5085ZM121.441 16.0266C121.357 13.8196 119.983 12.7369 118.422 12.7369C116.652 12.7369 115.111 13.882 114.737 16.0266H121.441Z" fill="white"/>
<path d="M118.443 11.5085C121.399 11.5085 122.94 13.7779 122.94 16.443C122.94 16.6928 122.898 17.1717 122.898 17.1717H114.674C114.716 19.8783 116.61 21.4191 118.817 21.4191C120.774 21.4191 122.024 20.1074 122.024 20.1074L122.732 21.19C122.732 21.19 121.17 22.7308 118.755 22.7308C115.59 22.7308 113.154 20.4405 113.154 17.13C113.154 13.6322 115.569 11.5085 118.443 11.5085ZM121.441 16.0266C121.357 13.8196 119.983 12.7369 118.422 12.7369C116.652 12.7369 115.111 13.882 114.737 16.0266H121.441Z" fill="white"/>
<path d="M130.06 11.5085C131.268 11.5085 133.87 12.029 133.87 13.7779V14.7357H132.517V14.1111C132.517 13.2158 130.956 12.7994 130.06 12.7994C127.77 12.7994 125.917 14.5275 125.917 17.13C125.917 19.7742 127.853 21.4191 130.102 21.4191C132.288 21.4191 133.558 19.8992 133.558 19.8992L134.245 20.9818C134.245 20.9818 132.788 22.7308 130.06 22.7308C126.875 22.7308 124.439 20.4613 124.439 17.13C124.418 13.8612 126.875 11.5085 130.06 11.5085Z" fill="white"/>
<path d="M130.06 11.5085C131.268 11.5085 133.87 12.029 133.87 13.7779V14.7357H132.517V14.1111C132.517 13.2158 130.956 12.7994 130.06 12.7994C127.77 12.7994 125.917 14.5275 125.917 17.13C125.917 19.7742 127.853 21.4191 130.102 21.4191C132.288 21.4191 133.558 19.8992 133.558 19.8992L134.245 20.9818C134.245 20.9818 132.788 22.7308 130.06 22.7308C126.875 22.7308 124.439 20.4613 124.439 17.13C124.418 13.8612 126.875 11.5085 130.06 11.5085Z" fill="white"/>
<path d="M145.134 22.4809C144.406 22.4809 143.989 22.1062 143.989 21.1901V16.0474C143.989 14.3609 143.739 12.8827 141.657 12.8827C139.846 12.8827 138.264 14.1319 137.785 15.9225C137.66 16.3389 137.618 16.8386 137.618 17.3383V22.4601H136.161V9.23911C136.161 8.94762 135.994 8.78106 135.703 8.78106H134.807V7.53183H136.515C137.139 7.53183 137.618 7.92742 137.618 8.7186V13.3199C137.618 13.8196 137.576 14.1944 137.576 14.1944H137.618C138.014 13.1742 139.45 11.5294 141.845 11.5294C144.51 11.5294 145.447 13.0493 145.447 15.6726V20.7528V22.4809H145.134Z" fill="white"/>
<path d="M145.134 22.4809C144.406 22.4809 143.989 22.1062 143.989 21.1901V16.0474C143.989 14.3609 143.739 12.8827 141.657 12.8827C139.846 12.8827 138.264 14.1319 137.785 15.9225C137.66 16.3389 137.618 16.8386 137.618 17.3383V22.4601H136.161V9.23911C136.161 8.94762 135.994 8.78106 135.703 8.78106H134.807V7.53183H136.515C137.139 7.53183 137.618 7.92742 137.618 8.7186V13.3199C137.618 13.8196 137.576 14.1944 137.576 14.1944H137.618C138.014 13.1742 139.45 11.5294 141.845 11.5294C144.51 11.5294 145.447 13.0493 145.447 15.6726V20.7528V22.4809H145.134Z" fill="white"/>
<path d="M55.523 11.4669C58.6045 11.4669 60.2909 13.7155 60.2909 16.5679C60.2909 16.8802 60.2285 17.5673 60.2285 17.5673H52.7955C53.0037 19.4619 54.3987 20.4613 56.0227 20.4613C57.7508 20.4613 59.0417 19.2537 59.0417 19.2537L60.166 21.1067C60.166 21.1067 58.5212 22.7307 55.8353 22.7307C52.275 22.7307 50.0472 20.149 50.0472 17.0884C50.0681 13.7988 52.2959 11.4669 55.523 11.4669ZM57.5426 15.7142C57.501 14.4234 56.6057 13.5489 55.523 13.5489C54.1489 13.5489 53.1911 14.3817 52.8788 15.7142H57.5426Z" fill="white"/>
<path d="M64.1635 14.819H61.6859C61.7275 14.2985 61.8525 13.9237 61.9357 13.6322C62.6436 11.6335 64.7257 11.4461 65.85 11.4461C69.4311 11.4461 70.493 13.3407 70.493 15.7351V19.7534C70.493 20.0449 70.6595 20.2115 70.951 20.2115H71.8046V22.4601H69.3895C68.3901 22.4601 68.0361 21.8563 68.0153 21.2733C67.9945 21.0027 68.0361 20.8153 68.0361 20.8153H67.9945C67.9945 20.8153 67.1617 22.71 64.7465 22.71C62.831 22.71 61.0821 21.5024 61.0821 19.3579C61.0821 15.9849 65.7251 15.7143 67.474 15.7143H67.8071V15.631C67.8071 14.0903 67.2033 13.424 65.8292 13.424C65.4544 13.424 64.8298 13.5281 64.455 14.0278C64.226 14.3609 64.1635 14.8398 64.1635 14.819ZM65.4128 20.6487C66.8494 20.6487 67.8696 19.1288 67.8696 17.8171V17.5673H67.4115C66.0166 17.5673 63.8096 17.7547 63.8096 19.2538C63.7888 19.9617 64.3301 20.6487 65.4128 20.6487Z" fill="white"/>
<path d="M75.9479 22.4809H74.6779C73.8034 22.5017 73.2621 22.0437 73.2621 21.0651V10.2385C73.2621 9.92616 73.0747 9.78042 72.804 9.78042H71.9504V7.51099H74.5113C75.4274 7.51099 75.9479 8.01068 75.9479 8.9476V19.7743C75.9687 19.7534 75.9479 22.5017 75.9479 22.4809Z" fill="white"/>
<path d="M81.5694 22.4809H80.1953C79.3416 22.4809 78.9044 21.9187 78.9044 21.0651V14.465C78.9044 14.1527 78.7378 14.007 78.4464 14.007H77.5927V11.7167H80.1536C81.0489 11.7167 81.5694 12.258 81.5694 13.1533V19.7534V22.4809Z" fill="white"/>
<path d="M87.1077 14.007V19.691C87.1077 19.691 87.1493 22.4601 87.1285 22.4809H85.8585C84.9424 22.4809 84.4427 22.0437 84.4427 21.0443V14.465C84.4427 14.1527 84.2761 14.007 83.9846 14.007H83.131V11.7167H84.4843V11.4044C84.4843 7.88576 87.3784 7.40689 88.8774 7.40689C89.4188 7.40689 89.7935 7.46935 89.7935 7.46935V9.73879C89.7935 9.73879 89.5645 9.69714 89.2522 9.69714C88.5027 9.69714 87.191 9.88453 87.191 11.4461V11.6959H89.4812V13.9653C89.4604 14.007 87.1077 14.007 87.1077 14.007Z" fill="white"/>
<path d="M94.9779 11.4669C98.0593 11.4669 99.7458 13.7155 99.7458 16.5679C99.7458 16.8802 99.6833 17.5673 99.6833 17.5673H92.2504C92.4586 19.4619 93.8536 20.4613 95.4776 20.4613C97.2057 20.4613 98.4965 19.2537 98.4965 19.2537L99.6208 21.1067C99.6208 21.1067 97.976 22.7307 95.2902 22.7307C91.7299 22.7307 89.5021 20.149 89.5021 17.0884C89.5021 13.7988 91.7507 11.4669 94.9779 11.4669ZM96.9974 15.7142C96.9558 14.4234 96.0605 13.5489 94.9779 13.5489C93.6037 13.5489 92.646 14.3817 92.3337 15.7142H96.9974Z" fill="white"/>
<path d="M49.7974 20.149C49.3393 20.149 48.9646 20.1074 48.7355 19.6702L47.2781 16.7761C47.0074 16.2348 46.5494 16.0266 46.5494 16.0266V15.9849C47.174 15.86 49.0479 14.7357 49.0479 12.0499C49.0479 9.21829 47.1324 7.53183 44.3841 7.53183H37.6799V9.86372H38.6376C38.8042 9.86372 39.054 9.96783 39.054 10.2801V18.0045V21.0235V22.5018H41.844V16.901H43.2181C44.0926 16.8594 44.3841 17.1925 44.6339 17.5881L46.5494 21.3566C47.0283 22.3144 47.528 22.4809 48.6314 22.4809H50.0889V20.149H49.7974ZM44.0093 14.5275H41.8231V9.8429H44.0509C45.4043 9.8429 46.2163 10.6965 46.2163 12.154C46.2371 13.6739 45.4043 14.5275 44.0093 14.5275Z" fill="white"/>
<path d="M78.4464 10.6132C77.9884 10.1552 77.9884 9.40565 78.4464 8.9476L79.5499 7.84412C80.008 7.38607 80.7575 7.38607 81.2156 7.84412C81.6736 8.30217 81.6736 9.05171 81.2156 9.50976L80.1121 10.6132C79.654 11.0713 78.9045 11.0713 78.4464 10.6132Z" fill="white"/>
</svg>
