<?xml version="1.0" encoding="UTF-8" standalone="no"?>
<svg
   xmlns:dc="http://purl.org/dc/elements/1.1/"
   xmlns:cc="http://creativecommons.org/ns#"
   xmlns:rdf="http://www.w3.org/1999/02/22-rdf-syntax-ns#"
   xmlns:svg="http://www.w3.org/2000/svg"
   xmlns="http://www.w3.org/2000/svg"
   viewBox="0 0 480 140.66667"
   height="140.66667"
   width="480"
   xml:space="preserve"
   id="svg2"
   version="1.1"><metadata
     id="metadata8"><rdf:RDF><cc:Work
         rdf:about=""><dc:format>image/svg+xml</dc:format><dc:type
           rdf:resource="http://purl.org/dc/dcmitype/StillImage" /></cc:Work></rdf:RDF></metadata><defs
     id="defs6" /><g
     transform="matrix(1.3333333,0,0,-1.3333333,0,140.66667)"
     id="g10"><g
       transform="scale(0.1)"
       id="g12"><path
         id="path14"
         style="fill:#e7237a;fill-opacity:1;fill-rule:nonzero;stroke:none"
         d="M 555.289,662.227 502.66,609.59 c -4.101,-4.09 -6.355,-9.539 -6.355,-15.332 0,-5.797 2.254,-11.246 6.355,-15.34 4.102,-4.098 9.547,-6.355 15.336,-6.355 5.793,0 11.238,2.257 15.34,6.355 l 53.367,53.371 c 4.098,4.094 6.356,9.543 6.356,15.34 0,7.707 -3.996,14.797 -10.996,18.918 -7.926,4.668 -20.27,2.18 -26.774,-4.32" /><path
         id="path16"
         style="fill:#1e3f6a;fill-opacity:1;fill-rule:nonzero;stroke:none"
         d="m 649.668,704.242 c 5.801,0 11.246,2.25 15.336,6.356 l 131.324,131.32 c 4.098,4.094 6.36,9.535 6.36,15.332 0,5.797 -2.262,11.242 -6.36,15.344 -8.453,8.453 -22.211,8.453 -30.68,0 L 634.332,741.27 c -4.098,-4.102 -6.359,-9.547 -6.359,-15.34 0,-5.797 2.261,-11.242 6.359,-15.332 4.09,-4.106 9.539,-6.356 15.336,-6.356" /><path
         id="path18"
         style="fill:#1e3f6a;fill-opacity:1;fill-rule:nonzero;stroke:none"
         d="m 665.754,352.637 c -6.512,6.511 -18.859,8.996 -26.789,4.328 -6.996,-4.121 -10.992,-11.211 -10.992,-18.918 0,-5.789 2.261,-11.238 6.359,-15.332 L 765.648,191.387 c 4.098,-4.09 9.547,-6.348 15.344,-6.348 5.801,0 11.242,2.258 15.336,6.348 4.098,4.093 6.36,9.543 6.36,15.343 0,5.79 -2.262,11.239 -6.36,15.333 L 665.754,352.637" /><path
         id="path20"
         style="fill:#1e3f6a;fill-opacity:1;fill-rule:nonzero;stroke:none"
         d="M 245.715,352.645 115.133,222.063 c -4.098,-4.094 -6.356,-9.543 -6.356,-15.333 0,-5.8 2.258,-11.25 6.356,-15.343 4.09,-4.09 9.535,-6.348 15.336,-6.348 5.797,0 11.246,2.258 15.336,6.348 l 131.324,131.328 c 4.094,4.094 6.351,9.543 6.351,15.332 0,7.715 -4,14.805 -11,18.926 -7.925,4.668 -20.269,2.175 -26.765,-4.328" /><path
         id="path22"
         style="fill:#1e3f6a;fill-opacity:1;fill-rule:nonzero;stroke:none"
         d="m 246.449,710.598 c 4.094,-4.106 9.543,-6.356 15.336,-6.356 5.805,0 11.25,2.25 15.344,6.356 4.094,4.09 6.351,9.535 6.351,15.332 0,5.793 -2.257,11.238 -6.351,15.34 L 146.547,871.852 c -6.504,6.503 -18.848,8.988 -26.774,4.324 -7,-4.125 -10.996,-11.215 -10.996,-18.926 0,-5.797 2.258,-11.238 6.356,-15.332 l 131.316,-131.32" /><path
         id="path24"
         style="fill:#1e3f6a;fill-opacity:1;fill-rule:nonzero;stroke:none"
         d="m 509.836,705.828 c 4.719,-1.898 9.832,-2.129 14.934,-0.539 6.398,1.984 11.226,7.316 13.75,13.524 l 52.5,129.179 c 3.457,8.512 0.984,20.863 -6.348,26.406 -6.508,4.926 -14.621,5.856 -21.738,2.844 -5.336,-2.258 -9.477,-6.461 -11.661,-11.828 L 497.898,734.102 c -2.175,-5.375 -2.136,-11.27 0.114,-16.614 2.254,-5.332 6.453,-9.468 11.824,-11.66" /><path
         id="path26"
         style="fill:#1e3f6a;fill-opacity:1;fill-rule:nonzero;stroke:none"
         d="m 360.188,865.414 c -2.184,5.367 -6.325,9.57 -11.665,11.828 -5.335,2.254 -11.226,2.293 -16.597,0.102 -5.367,-2.176 -9.563,-6.324 -11.821,-11.656 -2.25,-5.34 -2.289,-11.235 -0.109,-16.602 l 52.969,-130.324 c 2.519,-6.199 7.348,-11.516 13.738,-13.485 5.094,-1.57 10.215,-1.351 14.93,0.559 5.363,2.184 9.562,6.32 11.812,11.652 2.254,5.344 2.293,11.239 0.11,16.614 l -53.367,131.312" /><path
         id="path28"
         style="fill:#71c32d;fill-opacity:1;fill-rule:nonzero;stroke:none"
         d="m 269.957,614.352 -130.34,52.968 c -8.523,3.461 -20.867,0.95 -26.359,-6.425 -4.852,-6.52 -5.77,-14.602 -2.774,-21.707 2.254,-5.336 6.45,-9.477 11.817,-11.653 l 131.32,-53.375 c 2.613,-1.062 5.359,-1.601 8.16,-1.601 8.871,0 16.766,5.308 20.106,13.531 2.176,5.363 2.136,11.258 -0.114,16.601 -2.253,5.336 -6.453,9.477 -11.816,11.661" /><path
         id="path30"
         style="fill:#71c32d;fill-opacity:1;fill-rule:nonzero;stroke:none"
         d="M 253.621,489.82 122.305,436.445 c -5.371,-2.175 -9.567,-6.316 -11.821,-11.66 -2.254,-5.344 -2.293,-11.23 -0.109,-16.601 3.34,-8.211 11.23,-13.528 20.105,-13.528 2.79,0 5.532,0.539 8.157,1.606 l 131.32,53.371 c 5.363,2.18 9.563,6.324 11.816,11.656 2.25,5.344 2.29,11.234 0.114,16.602 -4.508,11.078 -17.184,16.445 -28.266,11.929" /><path
         id="path32"
         style="fill:#1e3f6a;fill-opacity:1;fill-rule:nonzero;stroke:none"
         d="m 401.633,358.145 c -5.367,2.175 -11.262,2.148 -16.606,-0.118 -5.336,-2.257 -9.476,-6.445 -11.66,-11.816 L 319.996,214.895 c -2.18,-5.375 -2.141,-11.262 0.109,-16.602 2.258,-5.344 6.454,-9.484 11.825,-11.672 4.715,-1.894 9.832,-2.117 14.933,-0.535 6.399,1.98 11.223,7.312 13.746,13.523 l 52.946,130.274 c 2.183,5.359 2.144,11.262 -0.11,16.601 -2.254,5.332 -6.449,9.473 -11.812,11.661" /><path
         id="path34"
         style="fill:#1e3f6a;fill-opacity:1;fill-rule:nonzero;stroke:none"
         d="m 538.09,346.211 c -2.184,5.371 -6.32,9.559 -11.66,11.816 -7.075,2.989 -15.117,2.09 -21.641,-2.722 -7.426,-5.492 -9.961,-17.864 -6.484,-26.418 l 52.558,-129.324 c 2.532,-6.223 7.391,-11.543 13.809,-13.508 5.078,-1.551 10.156,-1.321 14.863,0.578 5.367,2.176 9.563,6.316 11.817,11.66 2.253,5.34 2.293,11.227 0.109,16.602 L 538.09,346.211" /><path
         id="path36"
         style="fill:#71c32d;fill-opacity:1;fill-rule:nonzero;stroke:none"
         d="M 789.156,436.445 657.832,489.82 c -11.078,4.516 -23.75,-0.859 -28.258,-11.929 -2.179,-5.368 -2.14,-11.258 0.11,-16.602 2.254,-5.332 6.453,-9.476 11.82,-11.656 L 772.832,396.25 c 2.613,-1.055 5.356,-1.594 8.152,-1.594 8.871,0 16.758,5.317 20.102,13.528 2.18,5.371 2.141,11.257 -0.109,16.601 -2.254,5.344 -6.457,9.485 -11.821,11.66" /><path
         id="path38"
         style="fill:#71c32d;fill-opacity:1;fill-rule:nonzero;stroke:none"
         d="m 649.672,572.559 c 2.805,0 5.547,0.539 8.16,1.601 l 131.324,53.375 c 5.364,2.176 9.567,6.317 11.821,11.653 2.992,7.105 2.074,15.187 -2.778,21.707 -5.488,7.375 -17.832,9.886 -26.359,6.425 L 641.504,614.352 c -5.367,-2.184 -9.566,-6.325 -11.82,-11.661 -2.25,-5.343 -2.289,-11.238 -0.11,-16.601 3.34,-8.223 11.231,-13.531 20.098,-13.531" /><path
         id="path40"
         style="fill:#e7237a;fill-opacity:1;fill-rule:nonzero;stroke:none"
         d="m 378.125,578.918 c 4.102,-4.098 9.551,-6.355 15.336,-6.355 5.793,0 11.234,2.257 15.34,6.355 4.094,4.094 6.355,9.543 6.355,15.34 0,5.793 -2.261,11.242 -6.355,15.332 l -52.629,52.629 c -6.504,6.508 -18.852,8.992 -26.781,4.32 -7.004,-4.121 -10.993,-11.211 -10.993,-18.91 0,-5.797 2.254,-11.246 6.36,-15.34 l 53.367,-53.371" /><path
         id="path42"
         style="fill:#e7237a;fill-opacity:1;fill-rule:nonzero;stroke:none"
         d="m 556.031,401.016 c 4.102,-4.102 9.543,-6.348 15.336,-6.348 5.789,0 11.235,2.246 15.336,6.348 4.098,4.089 6.356,9.543 6.356,15.332 0,5.797 -2.258,11.246 -6.356,15.34 l -52.648,52.652 c -7.024,7.023 -18.063,9.336 -26.653,4.351 -7.07,-4.101 -11.097,-11.218 -11.097,-18.964 0,-5.797 2.254,-11.243 6.355,-15.332 l 53.371,-53.379" /><path
         id="path44"
         style="fill:#e7237a;fill-opacity:1;fill-rule:nonzero;stroke:none"
         d="m 324.758,401.016 c 4.097,-4.102 9.543,-6.348 15.332,-6.348 5.789,0 11.234,2.246 15.336,6.348 l 53.375,53.379 c 4.094,4.089 6.355,9.535 6.355,15.332 0,7.746 -4.027,14.863 -11.097,18.961 -8.59,4.984 -19.625,2.679 -26.653,-4.348 l -52.648,-52.652 c -4.106,-4.094 -6.36,-9.543 -6.36,-15.34 0,-5.789 2.254,-11.243 6.36,-15.332" /><path
         id="path46"
         style="fill:#345889;fill-opacity:1;fill-rule:nonzero;stroke:none"
         d="m 2656.04,358.945 h -34.5 v 315.856 h -85.74 c -6.16,0 -10.84,-2.957 -10.84,-10.84 V 650.77 h -31.53 v 29.05 c 0,12.66 7.38,25.532 25.65,25.532 h 238.56 c 0.49,0.023 0.98,0.035 1.47,0.035 14.75,0 25.04,-10.09 25.04,-24.699 V 650.77 h -32.03 v 13.191 c 0,7.883 -4.93,10.84 -10.84,10.84 h -85.24 V 358.945" /><path
         id="path48"
         style="fill:#345889;fill-opacity:1;fill-rule:nonzero;stroke:none"
         d="m 2857.3,353.035 c -73.41,0 -129.59,53.215 -129.59,129.594 0,81.301 55.68,130.086 122.2,130.086 68.5,0 103.98,-52.727 103.98,-114.32 0,-5.915 -0.99,-16.754 -0.99,-16.754 h -190.2 c 0.98,-62.578 44.84,-98.543 96.08,-98.543 45.33,0 74.4,30.543 74.4,30.543 l 16.26,-25.125 c 0,0 -35.96,-35.481 -92.14,-35.481 m -7.88,231.59 c -40.89,0 -76.87,-26.605 -85.25,-76.379 h 155.22 c -1.97,51.246 -33.5,76.379 -69.97,76.379" /><path
         id="path50"
         style="fill:#345889;fill-opacity:1;fill-rule:nonzero;stroke:none"
         d="m 3118.6,353.035 c -73.91,0 -130.08,52.727 -130.08,129.594 0,75.883 56.67,130.086 130.57,130.086 28.09,0 88.2,-11.824 88.2,-52.727 v -22.175 h -31.53 v 14.292 c 0,20.692 -35.97,30.551 -56.67,30.551 -53.22,0 -96.08,-39.914 -96.08,-100.027 0,-61.102 44.84,-99.043 97.07,-99.043 50.75,0 79.82,34.977 79.82,34.977 l 15.77,-25.125 c 0,0 -33.5,-40.403 -97.07,-40.403" /><path
         id="path52"
         style="fill:#345889;fill-opacity:1;fill-rule:nonzero;stroke:none"
         d="m 3468.11,358.945 c -17.01,0 -26.63,8.868 -26.63,30.059 v 118.754 c 0,38.926 -5.9,73.418 -54.19,73.418 -41.89,0 -78.34,-29.071 -89.68,-70.461 -2.96,-9.856 -3.95,-21.188 -3.95,-33.016 V 358.945 h -33.5 v 306.489 c 0,6.902 -3.95,10.839 -10.84,10.839 h -20.7 v 29.079 h 39.43 c 14.41,0 25.61,-9.043 25.61,-27.536 V 571.324 c 0,-11.336 -0.97,-20.207 -0.97,-20.207 h 0.97 c 9.37,23.653 42.38,61.598 98.07,61.598 61.59,0 83.27,-34.985 83.27,-96.09 v -117.77 -39.89 l -6.89,-0.02" /><path
         id="path54"
         style="fill:#1e3f6a;fill-opacity:1;fill-rule:nonzero;stroke:none"
         d="m 1440.58,515.648 c -0.99,29.79 -21.49,50.297 -46.89,50.297 -31.74,0 -54.2,-19.043 -61.03,-50.297 z m -46.89,98.157 c 71.31,0 110.37,-52.25 110.37,-118.176 0,-7.324 -1.47,-22.953 -1.47,-22.953 H 1330.7 c 4.88,-43.949 37.12,-66.906 74.72,-66.906 40.04,0 69.82,27.839 69.82,27.839 l 25.89,-42.972 c 0,0 -38.09,-37.602 -100.11,-37.602 -82.53,0 -133.8,59.57 -133.8,130.383 0,76.672 51.76,130.387 126.47,130.387" /><path
         id="path56"
         style="fill:#1e3f6a;fill-opacity:1;fill-rule:nonzero;stroke:none"
         d="m 1622.73,401.543 c 33.21,0 56.65,35.156 56.65,65.434 v 5.859 h -10.74 c -32.23,0 -83.51,-4.395 -83.51,-39.066 0,-16.602 12.2,-32.227 37.6,-32.227 z m -28.99,134.773 h -57.12 c 1.14,12.039 3.74,20.731 5.91,27.43 16.47,46.336 64.57,50.402 90.45,50.402 83.03,0 107.44,-43.644 107.44,-99.312 v -92.785 c 0,-6.836 3.71,-10.742 10.74,-10.742 h 19.53 v -52.254 h -55.66 c -22.96,0 -31.18,14.011 -31.74,27.351 -0.28,6.336 0.48,10.742 0.48,10.742 h -0.97 c 0,0 -19.05,-43.957 -75.21,-43.957 -44.43,0 -84.97,27.844 -84.97,77.649 0,78.137 107.43,84.48 147.97,84.48 h 7.81 v 1.953 c 0,35.653 -14.16,51.09 -45.9,51.09 -8.72,0 -23.02,-2.625 -31.88,-14.031 -5.71,-7.328 -6.88,-18.281 -6.88,-18.016" /><path
         id="path58"
         style="fill:#1e3f6a;fill-opacity:1;fill-rule:nonzero;stroke:none"
         d="m 1866.6,359.102 h -29.23 c -20.34,-0.301 -32.72,9.992 -32.67,32.918 v 250.109 c 0,7.324 -4.46,10.742 -10.74,10.742 h -19.54 v 52.742 h 59.1 c 21.01,0 33.2,-11.383 33.2,-33.207 V 421.891 l -0.12,-62.789" /><path
         id="path60"
         style="fill:#1e3f6a;fill-opacity:1;fill-rule:nonzero;stroke:none"
         d="m 1996.61,359.102 -31.76,0.031 c -19.88,0 -30.02,13.18 -30.02,32.652 v 152.68 c 0,7.074 -3.9,10.738 -10.74,10.738 h -19.53 v 52.742 h 59.09 c 20.9,0 32.72,-12.617 32.72,-33.211 V 421.891 l 0.24,-62.789" /><path
         id="path62"
         style="fill:#1e3f6a;fill-opacity:1;fill-rule:nonzero;stroke:none"
         d="M 2124.64,555.266 V 423.73 l 0.55,-64.597 h -29.37 c -21.32,0 -32.71,10.086 -32.71,33.211 v 152.191 c 0,7.324 -3.91,10.742 -10.75,10.742 h -19.54 V 608 h 31.21 l -0.07,7.273 c 0,81.551 66.91,92.293 101.59,92.293 12.69,0 20.99,-1.461 20.99,-1.461 v -52.742 c 0,0 -5.37,0.973 -12.69,0.973 -17.59,0 -47.86,-4.395 -47.86,-40.531 V 608 h 53.23 v -52.703 l -54.58,-0.031" /><path
         id="path64"
         style="fill:#1e3f6a;fill-opacity:1;fill-rule:nonzero;stroke:none"
         d="m 2353.77,515.648 c -0.99,29.79 -21.49,50.297 -46.89,50.297 -31.73,0 -54.2,-19.043 -61.04,-50.297 z m -46.89,98.157 c 71.3,0 110.37,-52.25 110.37,-118.176 0,-7.324 -1.47,-22.953 -1.47,-22.953 h -171.89 c 4.88,-43.949 37.12,-66.906 74.71,-66.906 40.05,0 69.84,27.839 69.84,27.839 l 25.88,-42.972 c 0,0 -38.09,-37.602 -100.11,-37.602 -82.53,0 -133.81,59.57 -133.81,130.383 0,76.672 51.77,130.387 126.48,130.387" /><path
         id="path66"
         style="fill:#1e3f6a;fill-opacity:1;fill-rule:nonzero;stroke:none"
         d="m 1127.21,542.996 h -50.78 v 108.41 h 51.76 c 31.24,0 50.29,-19.531 50.29,-53.715 0,-34.671 -19.05,-54.695 -51.27,-54.695 z m 133.87,-129.898 c -10.74,0 -19.04,0.972 -24.41,11.234 l -33.7,66.898 c -6.35,12.7 -17.1,17.583 -17.1,17.583 v 0.976 c 14.66,2.93 57.63,28.809 57.63,91.32 0,65.438 -44.44,104.504 -107.92,104.504 H 980.289 v -54.207 h 22.051 c 3.77,0 9.69,-2.222 9.69,-9.879 V 462.711 462.68 l 0.01,-69.867 -0.08,-34.012 h 64.37 l -0.03,129.504 h 31.93 c 20.13,0.843 27.18,-6.957 32.72,-16.117 l 44.44,-87.415 c 11.23,-21.968 22.46,-25.878 48.35,-25.878 h 33.69 v 54.203 h -6.35" /><path
         id="path68"
         style="fill:#e7237a;fill-opacity:1;fill-rule:nonzero;stroke:none"
         d="m 1924.89,632.797 -1.58,1.574 c -10.21,10.219 -10.21,26.938 0,37.152 l 27.32,27.329 c 10.23,10.214 26.95,10.214 37.16,0 l 1.58,-1.579 c 10.22,-10.21 10.22,-26.929 0,-37.152 l -27.33,-27.324 c -10.21,-10.219 -26.93,-10.219 -37.15,0" /></g></g></svg>